<?xml version="1.0" encoding="utf-8"?>
<!-- Generator: Adobe Illustrator 28.4.1, SVG Export Plug-In . SVG Version: 6.00 Build 0)  -->
<svg version="1.1" id="Capa_1" xmlns="http://www.w3.org/2000/svg" xmlns:xlink="http://www.w3.org/1999/xlink" x="0px" y="0px"
	 viewBox="0 0 722.2 182.2" style="enable-background:new 0 0 722.2 182.2;" xml:space="preserve">
<style type="text/css">
	.st0{enable-background:new    ;}
	.st1{fill:#FFFFFF;}
	.st2{fill:#EA5422;}
	.st3{fill:none;stroke:#EA5422;stroke-width:6;stroke-miterlimit:10;}
	.st4{fill:none;stroke:#FFFFFF;stroke-miterlimit:10;}
</style>
<g class="st0">
	<path class="st1" d="M33,39.5c5.3,0,8,2.5,8,7.4c0,2.4-0.7,4.4-2,6c-1.4,1.7-3.3,2.6-5.7,2.6c-2.5,0-4.6-0.8-6.2-2.4
		c-1.6-1.6-2.4-3.6-2.4-6.2C24.7,42,27.5,39.5,33,39.5z M41.3,126.2H24.7V68.8h16.5V126.2z"/>
</g>
<g class="st0">
	<path class="st1" d="M119.9,97V30.7h16.7v95.4h-16.7L70.3,59.6v66.5H53.8V30.7h16.5L119.9,97z"/>
	<path class="st1" d="M231.9,126.2h-65.6c-4.7,0-8.7-1.7-12.1-5.1c-3.4-3.4-5.1-7.4-5.1-12.1v-61c0-4.8,1.7-8.9,5-12.2
		c3.3-3.3,7.4-5,12.2-5h65.6v16.5h-66.3v62.4h49.6V86.7h-30.4V70.2h47.1V126.2z"/>
	<path class="st1" d="M326.9,126.2h-65.6c-4.7,0-8.7-1.7-12.1-5.1c-3.4-3.4-5.1-7.4-5.1-12.1v-61c0-4.8,1.7-8.9,5-12.2
		c3.3-3.3,7.4-5,12.2-5h65.6v16.5h-66.3v23h66.3v16.5h-66.3v22.9h66.3V126.2z"/>
</g>
<g class="st0">
	<path class="st1" d="M382.1,106.9h49.7v19.3H380c-4.7,0-8.7-1.7-12.1-5.1c-3.4-3.4-5.1-7.4-5.1-12.1V30.7h19.3V106.9z"/>
	<path class="st1" d="M520.5,126.2h-65.6c-4.7,0-8.8-1.7-12.1-5.1c-3.4-3.4-5.1-7.4-5.1-12.1v-61c0-4.8,1.7-8.9,5-12.2
		c3.3-3.3,7.4-5,12.2-5h65.6v16.5h-66.3v23h66.3v16.5h-66.3v22.9h66.3V126.2z"/>
	<path class="st1" d="M593.6,30.7c4.8,0,8.9,1.7,12.2,5c3.3,3.3,5,7.4,5,12.2v78.2h-16.7V93.6h-49.6v32.6H528V47.9
		c0-4.8,1.7-8.9,5-12.2c3.3-3.3,7.4-5,12.2-5H593.6z M594.1,77.1V47.2h-49.6v29.9H594.1z"/>
	<path class="st1" d="M689.4,97V30.7h16.7v95.4h-16.7l-49.6-66.5v66.5h-16.5V30.7h16.5L689.4,97z"/>
</g>
<g>
	<path class="st2" d="M6.6,21.5c-0.2,0.3-0.3,0.7,0,1l6.2,7.7c0.1,0.1,0.3,0.2,0.5,0.2h0c0.2,0,0.3-0.1,0.5-0.2
		c3.6-4,7.9-6.8,12.7-8.2c2.3-0.7,4.7-1,7.1-1c2.3,0,4.6,0.3,6.8,0.9c4.7,1.3,9.1,4,12.7,8c0.3,0.3,0.7,0.3,0.9,0l6.2-7
		c0.1-0.1,0.2-0.3,0.2-0.5s-0.1-0.4-0.2-0.5C53,14,43.5,9.7,33.5,9.7C22.9,9.7,13.3,13.9,6.6,21.5L6.6,21.5z"/>
	<path class="st2" d="M33.4,25.6c-1.7,0-3.3,0.2-5,0.7c-4.2,1.2-8.2,3.8-11.5,7.6c-0.2,0.3-0.3,0.8,0,1l5.2,6
		c0.1,0.1,0.3,0.2,0.5,0.2c0.2,0,0.4-0.1,0.5-0.2c3-3.4,5.8-5.5,10.3-5.5c4.3,0,7.3,2.3,10.5,5.7c0.1,0.1,0.3,0.2,0.5,0.2h0
		c0.2,0,0.3-0.1,0.5-0.2l5.1-6.5c0.2-0.3,0.2-0.8,0-1c-3.3-3.6-7.3-6.1-11.5-7.3C36.7,25.9,35,25.6,33.4,25.6L33.4,25.6z"/>
	<path class="st2" d="M24.6,46.9c0,4.8,3.7,8.8,8.3,8.8c4.6,0,8.3-3.9,8.3-8.8c0-4.8-3.7-8.8-8.3-8.8S24.6,42.1,24.6,46.9z
		 M37.5,46.9c0,2.7-2,4.8-4.6,4.8s-4.6-2.2-4.6-4.8c0-2.7,2.1-4.8,4.6-4.8S37.5,44.3,37.5,46.9z"/>
	<path class="st2" d="M27.4,47.3c0,3.3,2.7,6,6,6c3.3,0,6-2.7,6-6c0-3.3-2.7-6-6-6S27.4,44,27.4,47.3z"/>
</g>
<line class="st3" x1="24.7" y1="134.4" x2="706.2" y2="134.4"/>
<g class="st0">
	<path class="st1" d="M168.2,144.5h2.2v21h-2.2V144.5z"/>
</g>
<g class="st0">
	<path class="st4" d="M168.2,144.5h2.2v21h-2.2V144.5z"/>
</g>
<g class="st0">
	<path class="st1" d="M189.8,151.3c1.2,1.2,1.8,2.8,1.8,5v9.2h-2.1v-8.9c0-1.6-0.4-2.9-1.2-3.8c-0.8-0.9-2-1.3-3.5-1.3
		c-1.7,0-3,0.5-4,1.5c-1,1-1.5,2.4-1.5,4.2v8.3H177v-15.8h2v2.9c0.6-1,1.4-1.7,2.4-2.2c1-0.5,2.2-0.8,3.6-0.8
		C187,149.6,188.6,150.2,189.8,151.3z"/>
</g>
<g class="st0">
	<path class="st4" d="M189.8,151.3c1.2,1.2,1.8,2.8,1.8,5v9.2h-2.1v-8.9c0-1.6-0.4-2.9-1.2-3.8c-0.8-0.9-2-1.3-3.5-1.3
		c-1.7,0-3,0.5-4,1.5c-1,1-1.5,2.4-1.5,4.2v8.3H177v-15.8h2v2.9c0.6-1,1.4-1.7,2.4-2.2c1-0.5,2.2-0.8,3.6-0.8
		C187,149.6,188.6,150.2,189.8,151.3z"/>
</g>
<g class="st0">
	<path class="st1" d="M212.1,149.7v13.9c0,2.7-0.7,4.7-2,6c-1.3,1.3-3.3,1.9-5.9,1.9c-1.5,0-2.8-0.2-4.2-0.6c-1.3-0.4-2.4-1-3.2-1.8
		l1.1-1.6c0.8,0.7,1.7,1.2,2.8,1.6c1.1,0.4,2.2,0.6,3.4,0.6c2,0,3.5-0.5,4.4-1.4c0.9-0.9,1.4-2.4,1.4-4.3v-2c-0.7,1-1.5,1.8-2.6,2.3
		c-1.1,0.5-2.3,0.8-3.6,0.8c-1.5,0-2.8-0.3-4-1c-1.2-0.6-2.2-1.6-2.9-2.7s-1-2.5-1-4c0-1.5,0.3-2.8,1-4c0.7-1.2,1.6-2.1,2.8-2.7
		c1.2-0.6,2.5-1,4-1c1.3,0,2.6,0.3,3.6,0.8c1.1,0.5,1.9,1.3,2.6,2.3v-3H212.1z M207.2,162.3c0.9-0.5,1.6-1.2,2.1-2.1
		c0.5-0.9,0.8-1.9,0.8-3c0-1.1-0.3-2.1-0.8-3c-0.5-0.9-1.2-1.5-2.1-2c-0.9-0.5-1.9-0.7-3.1-0.7c-1.1,0-2.2,0.2-3.1,0.7
		c-0.9,0.5-1.6,1.2-2.1,2c-0.5,0.9-0.8,1.9-0.8,3c0,1.1,0.3,2.1,0.8,3c0.5,0.9,1.2,1.6,2.1,2.1c0.9,0.5,1.9,0.7,3.1,0.7
		C205.2,163,206.2,162.8,207.2,162.3z"/>
	<path class="st1" d="M231.8,158.3h-13.2c0.1,1.6,0.8,3,1.9,4s2.6,1.5,4.3,1.5c1,0,1.9-0.2,2.7-0.5c0.8-0.3,1.5-0.9,2.1-1.5l1.2,1.4
		c-0.7,0.8-1.6,1.5-2.6,1.9s-2.2,0.7-3.5,0.7c-1.6,0-3.1-0.3-4.3-1c-1.2-0.7-2.2-1.6-2.9-2.9c-0.7-1.2-1.1-2.6-1.1-4.1
		s0.3-2.9,1-4.1c0.7-1.2,1.6-2.2,2.8-2.8s2.5-1,3.9-1s2.8,0.3,3.9,1c1.2,0.7,2.1,1.6,2.7,2.8s1,2.6,1,4.2L231.8,158.3z M220.4,152.9
		c-1,1-1.6,2.2-1.8,3.8h11.2c-0.1-1.6-0.7-2.8-1.8-3.8c-1-1-2.3-1.5-3.9-1.5C222.7,151.4,221.4,151.9,220.4,152.9z"/>
	<path class="st1" d="M249,151.3c1.2,1.2,1.8,2.8,1.8,5v9.2h-2.1v-8.9c0-1.6-0.4-2.9-1.2-3.8c-0.8-0.9-2-1.3-3.5-1.3
		c-1.7,0-3,0.5-4,1.5c-1,1-1.5,2.4-1.5,4.2v8.3h-2.1v-15.8h2v2.9c0.6-1,1.4-1.7,2.4-2.2c1-0.5,2.2-0.8,3.6-0.8
		C246.2,149.6,247.8,150.2,249,151.3z"/>
	<path class="st1" d="M256.5,145.8c-0.3-0.3-0.4-0.7-0.4-1.1c0-0.4,0.1-0.8,0.4-1c0.3-0.3,0.7-0.5,1.1-0.5s0.8,0.1,1.1,0.4
		c0.3,0.3,0.4,0.6,0.4,1c0,0.4-0.1,0.8-0.4,1.1c-0.3,0.3-0.7,0.4-1.1,0.4S256.8,146.1,256.5,145.8z M256.5,149.7h2.1v15.8h-2.1
		V149.7z"/>
	<path class="st1" d="M278.3,158.3h-13.2c0.1,1.6,0.8,3,1.9,4s2.6,1.5,4.3,1.5c1,0,1.9-0.2,2.7-0.5c0.8-0.3,1.5-0.9,2.1-1.5l1.2,1.4
		c-0.7,0.8-1.6,1.5-2.6,1.9s-2.2,0.7-3.5,0.7c-1.6,0-3.1-0.3-4.3-1c-1.2-0.7-2.2-1.6-2.9-2.9c-0.7-1.2-1.1-2.6-1.1-4.1
		s0.3-2.9,1-4.1c0.7-1.2,1.6-2.2,2.8-2.8s2.5-1,3.9-1s2.8,0.3,3.9,1c1.2,0.7,2.1,1.6,2.7,2.8s1,2.6,1,4.2L278.3,158.3z M266.9,152.9
		c-1,1-1.6,2.2-1.8,3.8h11.2c-0.1-1.6-0.7-2.8-1.8-3.8c-1-1-2.3-1.5-3.9-1.5C269.2,151.4,267.9,151.9,266.9,152.9z"/>
</g>
<g class="st0">
	<path class="st4" d="M212.1,149.7v13.9c0,2.7-0.7,4.7-2,6c-1.3,1.3-3.3,1.9-5.9,1.9c-1.5,0-2.8-0.2-4.2-0.6c-1.3-0.4-2.4-1-3.2-1.8
		l1.1-1.6c0.8,0.7,1.7,1.2,2.8,1.6c1.1,0.4,2.2,0.6,3.4,0.6c2,0,3.5-0.5,4.4-1.4c0.9-0.9,1.4-2.4,1.4-4.3v-2c-0.7,1-1.5,1.8-2.6,2.3
		c-1.1,0.5-2.3,0.8-3.6,0.8c-1.5,0-2.8-0.3-4-1c-1.2-0.6-2.2-1.6-2.9-2.7s-1-2.5-1-4c0-1.5,0.3-2.8,1-4c0.7-1.2,1.6-2.1,2.8-2.7
		c1.2-0.6,2.5-1,4-1c1.3,0,2.6,0.3,3.6,0.8c1.1,0.5,1.9,1.3,2.6,2.3v-3H212.1z M207.2,162.3c0.9-0.5,1.6-1.2,2.1-2.1
		c0.5-0.9,0.8-1.9,0.8-3c0-1.1-0.3-2.1-0.8-3c-0.5-0.9-1.2-1.5-2.1-2c-0.9-0.5-1.9-0.7-3.1-0.7c-1.1,0-2.2,0.2-3.1,0.7
		c-0.9,0.5-1.6,1.2-2.1,2c-0.5,0.9-0.8,1.9-0.8,3c0,1.1,0.3,2.1,0.8,3c0.5,0.9,1.2,1.6,2.1,2.1c0.9,0.5,1.9,0.7,3.1,0.7
		C205.2,163,206.2,162.8,207.2,162.3z"/>
	<path class="st4" d="M231.8,158.3h-13.2c0.1,1.6,0.8,3,1.9,4s2.6,1.5,4.3,1.5c1,0,1.9-0.2,2.7-0.5c0.8-0.3,1.5-0.9,2.1-1.5l1.2,1.4
		c-0.7,0.8-1.6,1.5-2.6,1.9s-2.2,0.7-3.5,0.7c-1.6,0-3.1-0.3-4.3-1c-1.2-0.7-2.2-1.6-2.9-2.9c-0.7-1.2-1.1-2.6-1.1-4.1
		s0.3-2.9,1-4.1c0.7-1.2,1.6-2.2,2.8-2.8s2.5-1,3.9-1s2.8,0.3,3.9,1c1.2,0.7,2.1,1.6,2.7,2.8s1,2.6,1,4.2L231.8,158.3z M220.4,152.9
		c-1,1-1.6,2.2-1.8,3.8h11.2c-0.1-1.6-0.7-2.8-1.8-3.8c-1-1-2.3-1.5-3.9-1.5C222.7,151.4,221.4,151.9,220.4,152.9z"/>
	<path class="st4" d="M249,151.3c1.2,1.2,1.8,2.8,1.8,5v9.2h-2.1v-8.9c0-1.6-0.4-2.9-1.2-3.8c-0.8-0.9-2-1.3-3.5-1.3
		c-1.7,0-3,0.5-4,1.5c-1,1-1.5,2.4-1.5,4.2v8.3h-2.1v-15.8h2v2.9c0.6-1,1.4-1.7,2.4-2.2c1-0.5,2.2-0.8,3.6-0.8
		C246.2,149.6,247.8,150.2,249,151.3z"/>
	<path class="st4" d="M256.5,145.8c-0.3-0.3-0.4-0.7-0.4-1.1c0-0.4,0.1-0.8,0.4-1c0.3-0.3,0.7-0.5,1.1-0.5s0.8,0.1,1.1,0.4
		c0.3,0.3,0.4,0.6,0.4,1c0,0.4-0.1,0.8-0.4,1.1c-0.3,0.3-0.7,0.4-1.1,0.4S256.8,146.1,256.5,145.8z M256.5,149.7h2.1v15.8h-2.1
		V149.7z"/>
	<path class="st4" d="M278.3,158.3h-13.2c0.1,1.6,0.8,3,1.9,4s2.6,1.5,4.3,1.5c1,0,1.9-0.2,2.7-0.5c0.8-0.3,1.5-0.9,2.1-1.5l1.2,1.4
		c-0.7,0.8-1.6,1.5-2.6,1.9s-2.2,0.7-3.5,0.7c-1.6,0-3.1-0.3-4.3-1c-1.2-0.7-2.2-1.6-2.9-2.9c-0.7-1.2-1.1-2.6-1.1-4.1
		s0.3-2.9,1-4.1c0.7-1.2,1.6-2.2,2.8-2.8s2.5-1,3.9-1s2.8,0.3,3.9,1c1.2,0.7,2.1,1.6,2.7,2.8s1,2.6,1,4.2L278.3,158.3z M266.9,152.9
		c-1,1-1.6,2.2-1.8,3.8h11.2c-0.1-1.6-0.7-2.8-1.8-3.8c-1-1-2.3-1.5-3.9-1.5C269.2,151.4,267.9,151.9,266.9,152.9z"/>
</g>
<g class="st0">
	<path class="st1" d="M287.8,150.4c1-0.5,2.2-0.8,3.7-0.8v2.1l-0.5,0c-1.7,0-3,0.5-3.9,1.5c-0.9,1-1.4,2.5-1.4,4.3v8h-2.1v-15.8h2
		v3.1C286,151.8,286.8,151,287.8,150.4z"/>
</g>
<g class="st0">
	<path class="st4" d="M287.8,150.4c1-0.5,2.2-0.8,3.7-0.8v2.1l-0.5,0c-1.7,0-3,0.5-3.9,1.5c-0.9,1-1.4,2.5-1.4,4.3v8h-2.1v-15.8h2
		v3.1C286,151.8,286.8,151,287.8,150.4z"/>
</g>
<g class="st0">
	<path class="st1" d="M298.7,143.5h2.9l-4.9,3.7h-2.1L298.7,143.5z M295.4,149.7h2.1v15.8h-2.1V149.7z"/>
	<path class="st1" d="M313.8,151.1c1.1,1,1.6,2.6,1.6,4.6v9.8h-2V163c-0.5,0.8-1.2,1.5-2.1,1.9c-0.9,0.5-2,0.7-3.3,0.7
		c-1.8,0-3.2-0.4-4.2-1.3c-1-0.8-1.6-1.9-1.6-3.3c0-1.3,0.5-2.4,1.5-3.2c1-0.8,2.5-1.2,4.6-1.2h5v-1c0-1.4-0.4-2.4-1.1-3.1
		c-0.8-0.7-1.9-1.1-3.3-1.1c-1,0-2,0.2-2.9,0.5s-1.7,0.8-2.4,1.4l-1-1.6c0.8-0.7,1.8-1.2,2.9-1.6c1.1-0.4,2.3-0.6,3.5-0.6
		C311.1,149.6,312.6,150.1,313.8,151.1z M311.4,163.1c0.9-0.5,1.5-1.3,1.9-2.4v-2.6h-5c-2.7,0-4,0.9-4,2.8c0,0.9,0.3,1.6,1,2.2
		c0.7,0.5,1.7,0.8,2.9,0.8C309.5,164,310.5,163.7,311.4,163.1z"/>
</g>
<g class="st0">
	<path class="st4" d="M298.7,143.5h2.9l-4.9,3.7h-2.1L298.7,143.5z M295.4,149.7h2.1v15.8h-2.1V149.7z"/>
	<path class="st4" d="M313.8,151.1c1.1,1,1.6,2.6,1.6,4.6v9.8h-2V163c-0.5,0.8-1.2,1.5-2.1,1.9c-0.9,0.5-2,0.7-3.3,0.7
		c-1.8,0-3.2-0.4-4.2-1.3c-1-0.8-1.6-1.9-1.6-3.3c0-1.3,0.5-2.4,1.5-3.2c1-0.8,2.5-1.2,4.6-1.2h5v-1c0-1.4-0.4-2.4-1.1-3.1
		c-0.8-0.7-1.9-1.1-3.3-1.1c-1,0-2,0.2-2.9,0.5s-1.7,0.8-2.4,1.4l-1-1.6c0.8-0.7,1.8-1.2,2.9-1.6c1.1-0.4,2.3-0.6,3.5-0.6
		C311.1,149.6,312.6,150.1,313.8,151.1z M311.4,163.1c0.9-0.5,1.5-1.3,1.9-2.4v-2.6h-5c-2.7,0-4,0.9-4,2.8c0,0.9,0.3,1.6,1,2.2
		c0.7,0.5,1.7,0.8,2.9,0.8C309.5,164,310.5,163.7,311.4,163.1z"/>
</g>
<g class="st0">
	<path class="st1" d="M341.7,158.3h-13.2c0.1,1.6,0.8,3,1.9,4c1.1,1,2.6,1.5,4.3,1.5c1,0,1.9-0.2,2.7-0.5c0.8-0.3,1.5-0.9,2.1-1.5
		l1.2,1.4c-0.7,0.8-1.6,1.5-2.6,1.9s-2.2,0.7-3.5,0.7c-1.6,0-3.1-0.3-4.3-1c-1.2-0.7-2.2-1.6-2.9-2.9s-1-2.6-1-4.1s0.3-2.9,1-4.1
		c0.7-1.2,1.6-2.2,2.8-2.8s2.5-1,3.9-1s2.8,0.3,3.9,1s2.1,1.6,2.7,2.8s1,2.6,1,4.2L341.7,158.3z M330.3,152.9c-1,1-1.6,2.2-1.8,3.8
		h11.2c-0.1-1.6-0.7-2.8-1.8-3.8c-1-1-2.3-1.5-3.9-1.5C332.6,151.4,331.3,151.9,330.3,152.9z"/>
	<path class="st1" d="M346.7,165.1c-1.2-0.4-2.1-0.8-2.7-1.4l1-1.7c0.7,0.5,1.5,0.9,2.5,1.3c1,0.3,2,0.5,3.1,0.5
		c1.4,0,2.5-0.2,3.2-0.7c0.7-0.5,1-1.1,1-1.9c0-0.6-0.2-1-0.6-1.4s-0.9-0.6-1.4-0.8c-0.6-0.2-1.3-0.3-2.3-0.5
		c-1.3-0.2-2.3-0.5-3.1-0.7c-0.8-0.2-1.4-0.7-2-1.3c-0.5-0.6-0.8-1.4-0.8-2.5c0-1.3,0.5-2.4,1.6-3.2c1.1-0.8,2.6-1.3,4.6-1.3
		c1,0,2,0.1,3.1,0.4c1,0.3,1.9,0.6,2.5,1.1l-0.9,1.7c-1.3-0.9-2.8-1.4-4.7-1.4c-1.4,0-2.4,0.2-3.1,0.7c-0.7,0.5-1,1.1-1,1.9
		c0,0.6,0.2,1.1,0.6,1.4c0.4,0.4,0.9,0.6,1.5,0.8c0.6,0.2,1.4,0.3,2.4,0.5c1.3,0.2,2.3,0.5,3,0.7c0.8,0.2,1.4,0.7,2,1.2
		s0.8,1.4,0.8,2.4c0,1.4-0.6,2.5-1.7,3.3c-1.2,0.8-2.7,1.2-4.8,1.2C349.1,165.7,347.8,165.5,346.7,165.1z"/>
	<path class="st1" d="M372.9,150.6c1.2,0.7,2.1,1.6,2.8,2.8c0.7,1.2,1,2.6,1,4.2c0,1.6-0.3,3-1,4.2c-0.7,1.2-1.6,2.2-2.8,2.8
		c-1.2,0.7-2.5,1-4,1c-1.3,0-2.4-0.3-3.5-0.8c-1-0.5-1.9-1.3-2.5-2.3v8.8h-2.1v-21.6h2v3.1c0.6-1,1.5-1.8,2.5-2.4
		c1.1-0.6,2.2-0.8,3.6-0.8C370.4,149.6,371.7,149.9,372.9,150.6z M371.8,163c0.9-0.5,1.6-1.2,2.1-2.2s0.8-2,0.8-3.2
		c0-1.2-0.3-2.3-0.8-3.2s-1.2-1.7-2.1-2.2s-1.9-0.8-3-0.8c-1.1,0-2.1,0.3-3,0.8c-0.9,0.5-1.6,1.2-2.1,2.2c-0.5,0.9-0.8,2-0.8,3.2
		c0,1.2,0.3,2.3,0.8,3.2c0.5,0.9,1.2,1.7,2.1,2.2c0.9,0.5,1.9,0.8,3,0.8C369.9,163.8,370.9,163.5,371.8,163z"/>
	<path class="st1" d="M394.9,158.3h-13.2c0.1,1.6,0.8,3,1.9,4c1.1,1,2.6,1.5,4.3,1.5c1,0,1.9-0.2,2.7-0.5s1.5-0.9,2.1-1.5l1.2,1.4
		c-0.7,0.8-1.6,1.5-2.6,1.9s-2.2,0.7-3.5,0.7c-1.6,0-3.1-0.3-4.3-1c-1.2-0.7-2.2-1.6-2.9-2.9c-0.7-1.2-1.1-2.6-1.1-4.1
		s0.3-2.9,1-4.1c0.7-1.2,1.6-2.2,2.8-2.8s2.5-1,3.9-1s2.8,0.3,3.9,1c1.2,0.7,2.1,1.6,2.7,2.8s1,2.6,1,4.2L394.9,158.3z M383.4,152.9
		c-1,1-1.6,2.2-1.8,3.8h11.2c-0.1-1.6-0.7-2.8-1.8-3.8c-1-1-2.3-1.5-3.9-1.5C385.7,151.4,384.5,151.9,383.4,152.9z"/>
	<path class="st1" d="M401.6,164.6c-1.2-0.7-2.2-1.6-2.9-2.9c-0.7-1.2-1-2.6-1-4.2s0.3-2.9,1-4.1c0.7-1.2,1.7-2.2,2.9-2.8
		c1.2-0.7,2.6-1,4.2-1c1.4,0,2.6,0.3,3.6,0.8c1.1,0.5,1.9,1.3,2.5,2.3l-1.6,1.1c-0.5-0.8-1.2-1.4-2-1.8c-0.8-0.4-1.7-0.6-2.6-0.6
		c-1.1,0-2.2,0.3-3.1,0.8c-0.9,0.5-1.6,1.2-2.1,2.2c-0.5,0.9-0.8,2-0.8,3.2c0,1.2,0.3,2.3,0.8,3.2s1.2,1.7,2.1,2.2s1.9,0.8,3.1,0.8
		c0.9,0,1.8-0.2,2.6-0.6c0.8-0.4,1.5-1,2-1.7l1.6,1.1c-0.6,1-1.5,1.8-2.5,2.3c-1.1,0.5-2.3,0.8-3.6,0.8
		C404.2,165.7,402.8,165.3,401.6,164.6z"/>
	<path class="st1" d="M416.1,145.8c-0.3-0.3-0.4-0.7-0.4-1.1c0-0.4,0.1-0.8,0.4-1c0.3-0.3,0.7-0.5,1.1-0.5c0.4,0,0.8,0.1,1.1,0.4
		c0.3,0.3,0.4,0.6,0.4,1c0,0.4-0.1,0.8-0.4,1.1c-0.3,0.3-0.7,0.4-1.1,0.4C416.8,146.3,416.4,146.1,416.1,145.8z M416.1,149.7h2.1
		v15.8h-2.1V149.7z"/>
	<path class="st1" d="M434.5,151.1c1.1,1,1.6,2.6,1.6,4.6v9.8h-2V163c-0.5,0.8-1.2,1.5-2.1,1.9c-0.9,0.5-2,0.7-3.3,0.7
		c-1.8,0-3.2-0.4-4.2-1.3c-1-0.8-1.6-1.9-1.6-3.3c0-1.3,0.5-2.4,1.5-3.2c1-0.8,2.5-1.2,4.6-1.2h5v-1c0-1.4-0.4-2.4-1.1-3.1
		c-0.8-0.7-1.9-1.1-3.3-1.1c-1,0-2,0.2-2.9,0.5s-1.7,0.8-2.4,1.4l-1-1.6c0.8-0.7,1.8-1.2,2.9-1.6s2.3-0.6,3.5-0.6
		C431.8,149.6,433.4,150.1,434.5,151.1z M432.1,163.1c0.9-0.5,1.5-1.3,1.9-2.4v-2.6h-5c-2.7,0-4,0.9-4,2.8c0,0.9,0.3,1.6,1,2.2
		c0.7,0.5,1.7,0.8,2.9,0.8C430.2,164,431.2,163.7,432.1,163.1z"/>
	<path class="st1" d="M441.9,143.2h2.1v22.3h-2.1V143.2z"/>
	<path class="st1" d="M449.9,145.8c-0.3-0.3-0.4-0.7-0.4-1.1c0-0.4,0.1-0.8,0.4-1c0.3-0.3,0.7-0.5,1.1-0.5c0.4,0,0.8,0.1,1.1,0.4
		c0.3,0.3,0.4,0.6,0.4,1c0,0.4-0.1,0.8-0.4,1.1c-0.3,0.3-0.7,0.4-1.1,0.4C450.6,146.3,450.2,146.1,449.9,145.8z M450,149.7h2.1v15.8
		H450V149.7z"/>
	<path class="st1" d="M469.2,163.7v1.8h-12.8v-1.4l9.9-12.6h-9.8v-1.8H469v1.4l-9.9,12.6H469.2z"/>
</g>
<g class="st0">
	<path class="st4" d="M341.7,158.3h-13.2c0.1,1.6,0.8,3,1.9,4c1.1,1,2.6,1.5,4.3,1.5c1,0,1.9-0.2,2.7-0.5c0.8-0.3,1.5-0.9,2.1-1.5
		l1.2,1.4c-0.7,0.8-1.6,1.5-2.6,1.9s-2.2,0.7-3.5,0.7c-1.6,0-3.1-0.3-4.3-1c-1.2-0.7-2.2-1.6-2.9-2.9s-1-2.6-1-4.1s0.3-2.9,1-4.1
		c0.7-1.2,1.6-2.2,2.8-2.8s2.5-1,3.9-1s2.8,0.3,3.9,1s2.1,1.6,2.7,2.8s1,2.6,1,4.2L341.7,158.3z M330.3,152.9c-1,1-1.6,2.2-1.8,3.8
		h11.2c-0.1-1.6-0.7-2.8-1.8-3.8c-1-1-2.3-1.5-3.9-1.5C332.6,151.4,331.3,151.9,330.3,152.9z"/>
	<path class="st4" d="M346.7,165.1c-1.2-0.4-2.1-0.8-2.7-1.4l1-1.7c0.7,0.5,1.5,0.9,2.5,1.3c1,0.3,2,0.5,3.1,0.5
		c1.4,0,2.5-0.2,3.2-0.7c0.7-0.5,1-1.1,1-1.9c0-0.6-0.2-1-0.6-1.4s-0.9-0.6-1.4-0.8c-0.6-0.2-1.3-0.3-2.3-0.5
		c-1.3-0.2-2.3-0.5-3.1-0.7c-0.8-0.2-1.4-0.7-2-1.3c-0.5-0.6-0.8-1.4-0.8-2.5c0-1.3,0.5-2.4,1.6-3.2c1.1-0.8,2.6-1.3,4.6-1.3
		c1,0,2,0.1,3.1,0.4c1,0.3,1.9,0.6,2.5,1.1l-0.9,1.7c-1.3-0.9-2.8-1.4-4.7-1.4c-1.4,0-2.4,0.2-3.1,0.7c-0.7,0.5-1,1.1-1,1.9
		c0,0.6,0.2,1.1,0.6,1.4c0.4,0.4,0.9,0.6,1.5,0.8c0.6,0.2,1.4,0.3,2.4,0.5c1.3,0.2,2.3,0.5,3,0.7c0.8,0.2,1.4,0.7,2,1.2
		s0.8,1.4,0.8,2.4c0,1.4-0.6,2.5-1.7,3.3c-1.2,0.8-2.7,1.2-4.8,1.2C349.1,165.7,347.8,165.5,346.7,165.1z"/>
	<path class="st4" d="M372.9,150.6c1.2,0.7,2.1,1.6,2.8,2.8c0.7,1.2,1,2.6,1,4.2c0,1.6-0.3,3-1,4.2c-0.7,1.2-1.6,2.2-2.8,2.8
		c-1.2,0.7-2.5,1-4,1c-1.3,0-2.4-0.3-3.5-0.8c-1-0.5-1.9-1.3-2.5-2.3v8.8h-2.1v-21.6h2v3.1c0.6-1,1.5-1.8,2.5-2.4
		c1.1-0.6,2.2-0.8,3.6-0.8C370.4,149.6,371.7,149.9,372.9,150.6z M371.8,163c0.9-0.5,1.6-1.2,2.1-2.2s0.8-2,0.8-3.2
		c0-1.2-0.3-2.3-0.8-3.2s-1.2-1.7-2.1-2.2s-1.9-0.8-3-0.8c-1.1,0-2.1,0.3-3,0.8c-0.9,0.5-1.6,1.2-2.1,2.2c-0.5,0.9-0.8,2-0.8,3.2
		c0,1.2,0.3,2.3,0.8,3.2c0.5,0.9,1.2,1.7,2.1,2.2c0.9,0.5,1.9,0.8,3,0.8C369.9,163.8,370.9,163.5,371.8,163z"/>
	<path class="st4" d="M394.9,158.3h-13.2c0.1,1.6,0.8,3,1.9,4c1.1,1,2.6,1.5,4.3,1.5c1,0,1.9-0.2,2.7-0.5s1.5-0.9,2.1-1.5l1.2,1.4
		c-0.7,0.8-1.6,1.5-2.6,1.9s-2.2,0.7-3.5,0.7c-1.6,0-3.1-0.3-4.3-1c-1.2-0.7-2.2-1.6-2.9-2.9c-0.7-1.2-1.1-2.6-1.1-4.1
		s0.3-2.9,1-4.1c0.7-1.2,1.6-2.2,2.8-2.8s2.5-1,3.9-1s2.8,0.3,3.9,1c1.2,0.7,2.1,1.6,2.7,2.8s1,2.6,1,4.2L394.9,158.3z M383.4,152.9
		c-1,1-1.6,2.2-1.8,3.8h11.2c-0.1-1.6-0.7-2.8-1.8-3.8c-1-1-2.3-1.5-3.9-1.5C385.7,151.4,384.5,151.9,383.4,152.9z"/>
	<path class="st4" d="M401.6,164.6c-1.2-0.7-2.2-1.6-2.9-2.9c-0.7-1.2-1-2.6-1-4.2s0.3-2.9,1-4.1c0.7-1.2,1.7-2.2,2.9-2.8
		c1.2-0.7,2.6-1,4.2-1c1.4,0,2.6,0.3,3.6,0.8c1.1,0.5,1.9,1.3,2.5,2.3l-1.6,1.1c-0.5-0.8-1.2-1.4-2-1.8c-0.8-0.4-1.7-0.6-2.6-0.6
		c-1.1,0-2.2,0.3-3.1,0.8c-0.9,0.5-1.6,1.2-2.1,2.2c-0.5,0.9-0.8,2-0.8,3.2c0,1.2,0.3,2.3,0.8,3.2s1.2,1.7,2.1,2.2s1.9,0.8,3.1,0.8
		c0.9,0,1.8-0.2,2.6-0.6c0.8-0.4,1.5-1,2-1.7l1.6,1.1c-0.6,1-1.5,1.8-2.5,2.3c-1.1,0.5-2.3,0.8-3.6,0.8
		C404.2,165.7,402.8,165.3,401.6,164.6z"/>
	<path class="st4" d="M416.1,145.8c-0.3-0.3-0.4-0.7-0.4-1.1c0-0.4,0.1-0.8,0.4-1c0.3-0.3,0.7-0.5,1.1-0.5c0.4,0,0.8,0.1,1.1,0.4
		c0.3,0.3,0.4,0.6,0.4,1c0,0.4-0.1,0.8-0.4,1.1c-0.3,0.3-0.7,0.4-1.1,0.4C416.8,146.3,416.4,146.1,416.1,145.8z M416.1,149.7h2.1
		v15.8h-2.1V149.7z"/>
	<path class="st4" d="M434.5,151.1c1.1,1,1.6,2.6,1.6,4.6v9.8h-2V163c-0.5,0.8-1.2,1.5-2.1,1.9c-0.9,0.5-2,0.7-3.3,0.7
		c-1.8,0-3.2-0.4-4.2-1.3c-1-0.8-1.6-1.9-1.6-3.3c0-1.3,0.5-2.4,1.5-3.2c1-0.8,2.5-1.2,4.6-1.2h5v-1c0-1.4-0.4-2.4-1.1-3.1
		c-0.8-0.7-1.9-1.1-3.3-1.1c-1,0-2,0.2-2.9,0.5s-1.7,0.8-2.4,1.4l-1-1.6c0.8-0.7,1.8-1.2,2.9-1.6s2.3-0.6,3.5-0.6
		C431.8,149.6,433.4,150.1,434.5,151.1z M432.1,163.1c0.9-0.5,1.5-1.3,1.9-2.4v-2.6h-5c-2.7,0-4,0.9-4,2.8c0,0.9,0.3,1.6,1,2.2
		c0.7,0.5,1.7,0.8,2.9,0.8C430.2,164,431.2,163.7,432.1,163.1z"/>
	<path class="st4" d="M441.9,143.2h2.1v22.3h-2.1V143.2z"/>
	<path class="st4" d="M449.9,145.8c-0.3-0.3-0.4-0.7-0.4-1.1c0-0.4,0.1-0.8,0.4-1c0.3-0.3,0.7-0.5,1.1-0.5c0.4,0,0.8,0.1,1.1,0.4
		c0.3,0.3,0.4,0.6,0.4,1c0,0.4-0.1,0.8-0.4,1.1c-0.3,0.3-0.7,0.4-1.1,0.4C450.6,146.3,450.2,146.1,449.9,145.8z M450,149.7h2.1v15.8
		H450V149.7z"/>
	<path class="st4" d="M469.2,163.7v1.8h-12.8v-1.4l9.9-12.6h-9.8v-1.8H469v1.4l-9.9,12.6H469.2z"/>
</g>
<g class="st0">
	<path class="st1" d="M485.1,151.1c1.1,1,1.7,2.6,1.7,4.6v9.8h-2V163c-0.5,0.8-1.2,1.5-2.1,1.9s-2,0.7-3.3,0.7
		c-1.8,0-3.2-0.4-4.2-1.3c-1-0.8-1.6-1.9-1.6-3.3c0-1.3,0.5-2.4,1.5-3.2s2.5-1.2,4.6-1.2h5v-1c0-1.4-0.4-2.4-1.1-3.1
		s-1.9-1.1-3.3-1.1c-1,0-2,0.2-2.9,0.5s-1.7,0.8-2.4,1.4l-1-1.6c0.8-0.7,1.8-1.2,2.9-1.6c1.1-0.4,2.3-0.6,3.5-0.6
		C482.5,149.6,484,150.1,485.1,151.1z M482.7,163.1c0.9-0.5,1.5-1.3,1.9-2.4v-2.6h-5c-2.7,0-4,0.9-4,2.8c0,0.9,0.3,1.6,1,2.2
		c0.7,0.5,1.7,0.8,2.9,0.8C480.8,164,481.9,163.7,482.7,163.1z"/>
</g>
<g class="st0">
	<path class="st4" d="M485.1,151.1c1.1,1,1.7,2.6,1.7,4.6v9.8h-2V163c-0.5,0.8-1.2,1.5-2.1,1.9s-2,0.7-3.3,0.7
		c-1.8,0-3.2-0.4-4.2-1.3c-1-0.8-1.6-1.9-1.6-3.3c0-1.3,0.5-2.4,1.5-3.2s2.5-1.2,4.6-1.2h5v-1c0-1.4-0.4-2.4-1.1-3.1
		s-1.9-1.1-3.3-1.1c-1,0-2,0.2-2.9,0.5s-1.7,0.8-2.4,1.4l-1-1.6c0.8-0.7,1.8-1.2,2.9-1.6c1.1-0.4,2.3-0.6,3.5-0.6
		C482.5,149.6,484,150.1,485.1,151.1z M482.7,163.1c0.9-0.5,1.5-1.3,1.9-2.4v-2.6h-5c-2.7,0-4,0.9-4,2.8c0,0.9,0.3,1.6,1,2.2
		c0.7,0.5,1.7,0.8,2.9,0.8C480.8,164,481.9,163.7,482.7,163.1z"/>
</g>
<g class="st0">
	<path class="st1" d="M507.2,143.2v22.3h-2v-3.1c-0.6,1.1-1.5,1.9-2.5,2.4c-1.1,0.6-2.2,0.8-3.6,0.8c-1.5,0-2.8-0.3-4-1
		c-1.2-0.7-2.1-1.6-2.8-2.8c-0.7-1.2-1-2.6-1-4.2c0-1.6,0.3-3,1-4.2c0.7-1.2,1.6-2.2,2.8-2.8s2.5-1,4-1c1.3,0,2.4,0.3,3.5,0.8
		c1,0.5,1.9,1.3,2.5,2.3v-9.5H507.2z M502.2,163c0.9-0.5,1.6-1.2,2.1-2.2c0.5-0.9,0.8-2,0.8-3.2c0-1.2-0.3-2.3-0.8-3.2
		c-0.5-0.9-1.2-1.7-2.1-2.2c-0.9-0.5-1.9-0.8-3-0.8c-1.1,0-2.1,0.3-3,0.8c-0.9,0.5-1.6,1.2-2.1,2.2c-0.5,0.9-0.8,2-0.8,3.2
		c0,1.2,0.3,2.3,0.8,3.2s1.2,1.7,2.1,2.2s1.9,0.8,3,0.8C500.3,163.8,501.3,163.5,502.2,163z"/>
	<path class="st1" d="M523.4,151.1c1.1,1,1.6,2.6,1.6,4.6v9.8h-2V163c-0.5,0.8-1.2,1.5-2.1,1.9s-2,0.7-3.3,0.7
		c-1.8,0-3.2-0.4-4.2-1.3c-1-0.8-1.6-1.9-1.6-3.3c0-1.3,0.5-2.4,1.5-3.2s2.5-1.2,4.6-1.2h5v-1c0-1.4-0.4-2.4-1.1-3.1
		s-1.9-1.1-3.3-1.1c-1,0-2,0.2-2.9,0.5s-1.7,0.8-2.4,1.4l-1-1.6c0.8-0.7,1.8-1.2,2.9-1.6s2.3-0.6,3.5-0.6
		C520.7,149.6,522.3,150.1,523.4,151.1z M521,163.1c0.9-0.5,1.5-1.3,1.9-2.4v-2.6h-5c-2.7,0-4,0.9-4,2.8c0,0.9,0.3,1.6,1,2.2
		c0.7,0.5,1.7,0.8,2.9,0.8C519.1,164,520.1,163.7,521,163.1z"/>
</g>
<g class="st0">
	<path class="st4" d="M507.2,143.2v22.3h-2v-3.1c-0.6,1.1-1.5,1.9-2.5,2.4c-1.1,0.6-2.2,0.8-3.6,0.8c-1.5,0-2.8-0.3-4-1
		c-1.2-0.7-2.1-1.6-2.8-2.8c-0.7-1.2-1-2.6-1-4.2c0-1.6,0.3-3,1-4.2c0.7-1.2,1.6-2.2,2.8-2.8s2.5-1,4-1c1.3,0,2.4,0.3,3.5,0.8
		c1,0.5,1.9,1.3,2.5,2.3v-9.5H507.2z M502.2,163c0.9-0.5,1.6-1.2,2.1-2.2c0.5-0.9,0.8-2,0.8-3.2c0-1.2-0.3-2.3-0.8-3.2
		c-0.5-0.9-1.2-1.7-2.1-2.2c-0.9-0.5-1.9-0.8-3-0.8c-1.1,0-2.1,0.3-3,0.8c-0.9,0.5-1.6,1.2-2.1,2.2c-0.5,0.9-0.8,2-0.8,3.2
		c0,1.2,0.3,2.3,0.8,3.2s1.2,1.7,2.1,2.2s1.9,0.8,3,0.8C500.3,163.8,501.3,163.5,502.2,163z"/>
	<path class="st4" d="M523.4,151.1c1.1,1,1.6,2.6,1.6,4.6v9.8h-2V163c-0.5,0.8-1.2,1.5-2.1,1.9s-2,0.7-3.3,0.7
		c-1.8,0-3.2-0.4-4.2-1.3c-1-0.8-1.6-1.9-1.6-3.3c0-1.3,0.5-2.4,1.5-3.2s2.5-1.2,4.6-1.2h5v-1c0-1.4-0.4-2.4-1.1-3.1
		s-1.9-1.1-3.3-1.1c-1,0-2,0.2-2.9,0.5s-1.7,0.8-2.4,1.4l-1-1.6c0.8-0.7,1.8-1.2,2.9-1.6s2.3-0.6,3.5-0.6
		C520.7,149.6,522.3,150.1,523.4,151.1z M521,163.1c0.9-0.5,1.5-1.3,1.9-2.4v-2.6h-5c-2.7,0-4,0.9-4,2.8c0,0.9,0.3,1.6,1,2.2
		c0.7,0.5,1.7,0.8,2.9,0.8C519.1,164,520.1,163.7,521,163.1z"/>
</g>
<g class="st0">
	<path class="st1" d="M548.2,151.1c1.1,1,1.7,2.6,1.7,4.6v9.8h-2V163c-0.5,0.8-1.2,1.5-2.1,1.9c-0.9,0.5-2,0.7-3.3,0.7
		c-1.8,0-3.2-0.4-4.2-1.3c-1-0.8-1.6-1.9-1.6-3.3c0-1.3,0.5-2.4,1.5-3.2c1-0.8,2.5-1.2,4.6-1.2h5v-1c0-1.4-0.4-2.4-1.1-3.1
		c-0.8-0.7-1.9-1.1-3.3-1.1c-1,0-2,0.2-2.9,0.5s-1.7,0.8-2.4,1.4l-1-1.6c0.8-0.7,1.8-1.2,2.9-1.6c1.1-0.4,2.3-0.6,3.5-0.6
		C545.5,149.6,547.1,150.1,548.2,151.1z M545.8,163.1c0.9-0.5,1.5-1.3,1.9-2.4v-2.6h-5c-2.7,0-4,0.9-4,2.8c0,0.9,0.3,1.6,1,2.2
		c0.7,0.5,1.7,0.8,2.9,0.8C543.9,164,544.9,163.7,545.8,163.1z"/>
</g>
<g class="st0">
	<path class="st4" d="M548.2,151.1c1.1,1,1.7,2.6,1.7,4.6v9.8h-2V163c-0.5,0.8-1.2,1.5-2.1,1.9c-0.9,0.5-2,0.7-3.3,0.7
		c-1.8,0-3.2-0.4-4.2-1.3c-1-0.8-1.6-1.9-1.6-3.3c0-1.3,0.5-2.4,1.5-3.2c1-0.8,2.5-1.2,4.6-1.2h5v-1c0-1.4-0.4-2.4-1.1-3.1
		c-0.8-0.7-1.9-1.1-3.3-1.1c-1,0-2,0.2-2.9,0.5s-1.7,0.8-2.4,1.4l-1-1.6c0.8-0.7,1.8-1.2,2.9-1.6c1.1-0.4,2.3-0.6,3.5-0.6
		C545.5,149.6,547.1,150.1,548.2,151.1z M545.8,163.1c0.9-0.5,1.5-1.3,1.9-2.4v-2.6h-5c-2.7,0-4,0.9-4,2.8c0,0.9,0.3,1.6,1,2.2
		c0.7,0.5,1.7,0.8,2.9,0.8C543.9,164,544.9,163.7,545.8,163.1z"/>
</g>
<g class="st0">
	<path class="st1" d="M562.3,143.2h2.1v22.3h-2.1V143.2z"/>
	<path class="st1" d="M580.6,151.1c1.1,1,1.6,2.6,1.6,4.6v9.8h-2V163c-0.5,0.8-1.2,1.5-2.1,1.9c-0.9,0.5-2,0.7-3.3,0.7
		c-1.8,0-3.2-0.4-4.2-1.3c-1-0.8-1.6-1.9-1.6-3.3c0-1.3,0.5-2.4,1.5-3.2c1-0.8,2.5-1.2,4.6-1.2h5v-1c0-1.4-0.4-2.4-1.1-3.1
		c-0.8-0.7-1.9-1.1-3.3-1.1c-1,0-2,0.2-2.9,0.5s-1.7,0.8-2.4,1.4l-1-1.6c0.8-0.7,1.8-1.2,2.9-1.6s2.3-0.6,3.5-0.6
		C577.9,149.6,579.5,150.1,580.6,151.1z M578.2,163.1c0.9-0.5,1.5-1.3,1.9-2.4v-2.6h-5c-2.7,0-4,0.9-4,2.8c0,0.9,0.3,1.6,1,2.2
		c0.7,0.5,1.7,0.8,2.9,0.8C576.3,164,577.4,163.7,578.2,163.1z"/>
</g>
<g class="st0">
	<path class="st4" d="M562.3,143.2h2.1v22.3h-2.1V143.2z"/>
	<path class="st4" d="M580.6,151.1c1.1,1,1.6,2.6,1.6,4.6v9.8h-2V163c-0.5,0.8-1.2,1.5-2.1,1.9c-0.9,0.5-2,0.7-3.3,0.7
		c-1.8,0-3.2-0.4-4.2-1.3c-1-0.8-1.6-1.9-1.6-3.3c0-1.3,0.5-2.4,1.5-3.2c1-0.8,2.5-1.2,4.6-1.2h5v-1c0-1.4-0.4-2.4-1.1-3.1
		c-0.8-0.7-1.9-1.1-3.3-1.1c-1,0-2,0.2-2.9,0.5s-1.7,0.8-2.4,1.4l-1-1.6c0.8-0.7,1.8-1.2,2.9-1.6s2.3-0.6,3.5-0.6
		C577.9,149.6,579.5,150.1,580.6,151.1z M578.2,163.1c0.9-0.5,1.5-1.3,1.9-2.4v-2.6h-5c-2.7,0-4,0.9-4,2.8c0,0.9,0.3,1.6,1,2.2
		c0.7,0.5,1.7,0.8,2.9,0.8C576.3,164,577.4,163.7,578.2,163.1z"/>
</g>
<g class="st0">
	<path class="st1" d="M619.2,151.3c1.1,1.1,1.7,2.8,1.7,5v9.2h-2.1v-8.9c0-1.6-0.4-2.9-1.2-3.8c-0.8-0.9-1.9-1.3-3.3-1.3
		c-1.6,0-2.9,0.5-3.9,1.5s-1.4,2.4-1.4,4.2v8.3h-2.1v-8.9c0-1.6-0.4-2.9-1.2-3.8c-0.8-0.9-1.9-1.3-3.4-1.3c-1.6,0-2.9,0.5-3.9,1.5
		s-1.4,2.4-1.4,4.2v8.3h-2.1v-15.8h2v2.9c0.6-1,1.3-1.7,2.3-2.2c1-0.5,2.1-0.8,3.5-0.8c1.3,0,2.5,0.3,3.4,0.8c1,0.6,1.7,1.4,2.2,2.5
		c0.6-1,1.4-1.9,2.5-2.4c1.1-0.6,2.3-0.9,3.7-0.9C616.5,149.6,618.1,150.2,619.2,151.3z"/>
</g>
<g class="st0">
	<path class="st4" d="M619.2,151.3c1.1,1.1,1.7,2.8,1.7,5v9.2h-2.1v-8.9c0-1.6-0.4-2.9-1.2-3.8c-0.8-0.9-1.9-1.3-3.3-1.3
		c-1.6,0-2.9,0.5-3.9,1.5s-1.4,2.4-1.4,4.2v8.3h-2.1v-8.9c0-1.6-0.4-2.9-1.2-3.8c-0.8-0.9-1.9-1.3-3.4-1.3c-1.6,0-2.9,0.5-3.9,1.5
		s-1.4,2.4-1.4,4.2v8.3h-2.1v-15.8h2v2.9c0.6-1,1.3-1.7,2.3-2.2c1-0.5,2.1-0.8,3.5-0.8c1.3,0,2.5,0.3,3.4,0.8c1,0.6,1.7,1.4,2.2,2.5
		c0.6-1,1.4-1.9,2.5-2.4c1.1-0.6,2.3-0.9,3.7-0.9C616.5,149.6,618.1,150.2,619.2,151.3z"/>
</g>
<g class="st0">
	<path class="st1" d="M640.7,158.3h-13.2c0.1,1.6,0.8,3,1.9,4s2.6,1.5,4.3,1.5c1,0,1.9-0.2,2.7-0.5s1.5-0.9,2.1-1.5l1.2,1.4
		c-0.7,0.8-1.6,1.5-2.6,1.9c-1,0.4-2.2,0.7-3.5,0.7c-1.6,0-3.1-0.3-4.3-1c-1.2-0.7-2.2-1.6-2.9-2.9s-1-2.6-1-4.1s0.3-2.9,1-4.1
		c0.7-1.2,1.6-2.2,2.8-2.8s2.5-1,3.9-1c1.5,0,2.8,0.3,3.9,1c1.2,0.7,2.1,1.6,2.7,2.8s1,2.6,1,4.2L640.7,158.3z M629.2,152.9
		c-1,1-1.6,2.2-1.8,3.8h11.2c-0.1-1.6-0.7-2.8-1.8-3.8c-1-1-2.3-1.5-3.9-1.5C631.5,151.4,630.2,151.9,629.2,152.9z"/>
	<path class="st1" d="M659.4,143.2v22.3h-2v-3.1c-0.6,1.1-1.5,1.9-2.5,2.4c-1,0.6-2.2,0.8-3.6,0.8c-1.5,0-2.8-0.3-4-1
		c-1.2-0.7-2.1-1.6-2.8-2.8s-1-2.6-1-4.2c0-1.6,0.3-3,1-4.2s1.6-2.2,2.8-2.8c1.2-0.7,2.5-1,4-1c1.3,0,2.4,0.3,3.5,0.8
		c1,0.5,1.9,1.3,2.5,2.3v-9.5H659.4z M654.5,163c0.9-0.5,1.6-1.2,2.1-2.2s0.8-2,0.8-3.2c0-1.2-0.3-2.3-0.8-3.2
		c-0.5-0.9-1.2-1.7-2.1-2.2c-0.9-0.5-1.9-0.8-3-0.8c-1.1,0-2.1,0.3-3,0.8c-0.9,0.5-1.6,1.2-2.1,2.2c-0.5,0.9-0.8,2-0.8,3.2
		c0,1.2,0.3,2.3,0.8,3.2c0.5,0.9,1.2,1.7,2.1,2.2c0.9,0.5,1.9,0.8,3,0.8C652.6,163.8,653.6,163.5,654.5,163z"/>
	<path class="st1" d="M665.3,145.8c-0.3-0.3-0.5-0.7-0.5-1.1c0-0.4,0.1-0.8,0.5-1c0.3-0.3,0.7-0.5,1.1-0.5s0.8,0.1,1.1,0.4
		c0.3,0.3,0.5,0.6,0.5,1c0,0.4-0.2,0.8-0.5,1.1c-0.3,0.3-0.7,0.4-1.1,0.4S665.6,146.1,665.3,145.8z M665.4,149.7h2.1v15.8h-2.1
		V149.7z"/>
	<path class="st1" d="M687.8,143.2v22.3h-2v-3.1c-0.6,1.1-1.5,1.9-2.5,2.4c-1,0.6-2.2,0.8-3.6,0.8c-1.5,0-2.8-0.3-4-1
		c-1.2-0.7-2.1-1.6-2.8-2.8s-1-2.6-1-4.2c0-1.6,0.3-3,1-4.2s1.6-2.2,2.8-2.8c1.2-0.7,2.5-1,4-1c1.3,0,2.4,0.3,3.5,0.8
		c1,0.5,1.9,1.3,2.5,2.3v-9.5H687.8z M682.9,163c0.9-0.5,1.6-1.2,2.1-2.2s0.8-2,0.8-3.2c0-1.2-0.3-2.3-0.8-3.2
		c-0.5-0.9-1.2-1.7-2.1-2.2c-0.9-0.5-1.9-0.8-3-0.8c-1.1,0-2.1,0.3-3,0.8c-0.9,0.5-1.6,1.2-2.1,2.2c-0.5,0.9-0.8,2-0.8,3.2
		c0,1.2,0.3,2.3,0.8,3.2c0.5,0.9,1.2,1.7,2.1,2.2s1.9,0.8,3,0.8C681,163.8,682,163.5,682.9,163z"/>
	<path class="st1" d="M704,151.1c1.1,1,1.7,2.6,1.7,4.6v9.8h-2V163c-0.5,0.8-1.2,1.5-2.1,1.9c-0.9,0.5-2,0.7-3.3,0.7
		c-1.8,0-3.2-0.4-4.2-1.3c-1-0.8-1.6-1.9-1.6-3.3c0-1.3,0.5-2.4,1.5-3.2c1-0.8,2.5-1.2,4.6-1.2h5v-1c0-1.4-0.4-2.4-1.1-3.1
		c-0.8-0.7-1.9-1.1-3.3-1.1c-1,0-2,0.2-2.9,0.5s-1.7,0.8-2.4,1.4l-1-1.6c0.8-0.7,1.8-1.2,2.9-1.6c1.1-0.4,2.3-0.6,3.5-0.6
		C701.4,149.6,702.9,150.1,704,151.1z M701.6,163.1c0.9-0.5,1.5-1.3,1.9-2.4v-2.6h-4.9c-2.7,0-4.1,0.9-4.1,2.8
		c0,0.9,0.3,1.6,1.1,2.2c0.7,0.5,1.7,0.8,2.9,0.8C699.7,164,700.8,163.7,701.6,163.1z"/>
</g>
<g class="st0">
	<path class="st4" d="M640.7,158.3h-13.2c0.1,1.6,0.8,3,1.9,4s2.6,1.5,4.3,1.5c1,0,1.9-0.2,2.7-0.5s1.5-0.9,2.1-1.5l1.2,1.4
		c-0.7,0.8-1.6,1.5-2.6,1.9c-1,0.4-2.2,0.7-3.5,0.7c-1.6,0-3.1-0.3-4.3-1c-1.2-0.7-2.2-1.6-2.9-2.9s-1-2.6-1-4.1s0.3-2.9,1-4.1
		c0.7-1.2,1.6-2.2,2.8-2.8s2.5-1,3.9-1c1.5,0,2.8,0.3,3.9,1c1.2,0.7,2.1,1.6,2.7,2.8s1,2.6,1,4.2L640.7,158.3z M629.2,152.9
		c-1,1-1.6,2.2-1.8,3.8h11.2c-0.1-1.6-0.7-2.8-1.8-3.8c-1-1-2.3-1.5-3.9-1.5C631.5,151.4,630.2,151.9,629.2,152.9z"/>
	<path class="st4" d="M659.4,143.2v22.3h-2v-3.1c-0.6,1.1-1.5,1.9-2.5,2.4c-1,0.6-2.2,0.8-3.6,0.8c-1.5,0-2.8-0.3-4-1
		c-1.2-0.7-2.1-1.6-2.8-2.8s-1-2.6-1-4.2c0-1.6,0.3-3,1-4.2s1.6-2.2,2.8-2.8c1.2-0.7,2.5-1,4-1c1.3,0,2.4,0.3,3.5,0.8
		c1,0.5,1.9,1.3,2.5,2.3v-9.5H659.4z M654.5,163c0.9-0.5,1.6-1.2,2.1-2.2s0.8-2,0.8-3.2c0-1.2-0.3-2.3-0.8-3.2
		c-0.5-0.9-1.2-1.7-2.1-2.2c-0.9-0.5-1.9-0.8-3-0.8c-1.1,0-2.1,0.3-3,0.8c-0.9,0.5-1.6,1.2-2.1,2.2c-0.5,0.9-0.8,2-0.8,3.2
		c0,1.2,0.3,2.3,0.8,3.2c0.5,0.9,1.2,1.7,2.1,2.2c0.9,0.5,1.9,0.8,3,0.8C652.6,163.8,653.6,163.5,654.5,163z"/>
	<path class="st4" d="M665.3,145.8c-0.3-0.3-0.5-0.7-0.5-1.1c0-0.4,0.1-0.8,0.5-1c0.3-0.3,0.7-0.5,1.1-0.5s0.8,0.1,1.1,0.4
		c0.3,0.3,0.5,0.6,0.5,1c0,0.4-0.2,0.8-0.5,1.1c-0.3,0.3-0.7,0.4-1.1,0.4S665.6,146.1,665.3,145.8z M665.4,149.7h2.1v15.8h-2.1
		V149.7z"/>
	<path class="st4" d="M687.8,143.2v22.3h-2v-3.1c-0.6,1.1-1.5,1.9-2.5,2.4c-1,0.6-2.2,0.8-3.6,0.8c-1.5,0-2.8-0.3-4-1
		c-1.2-0.7-2.1-1.6-2.8-2.8s-1-2.6-1-4.2c0-1.6,0.3-3,1-4.2s1.6-2.2,2.8-2.8c1.2-0.7,2.5-1,4-1c1.3,0,2.4,0.3,3.5,0.8
		c1,0.5,1.9,1.3,2.5,2.3v-9.5H687.8z M682.9,163c0.9-0.5,1.6-1.2,2.1-2.2s0.8-2,0.8-3.2c0-1.2-0.3-2.3-0.8-3.2
		c-0.5-0.9-1.2-1.7-2.1-2.2c-0.9-0.5-1.9-0.8-3-0.8c-1.1,0-2.1,0.3-3,0.8c-0.9,0.5-1.6,1.2-2.1,2.2c-0.5,0.9-0.8,2-0.8,3.2
		c0,1.2,0.3,2.3,0.8,3.2c0.5,0.9,1.2,1.7,2.1,2.2s1.9,0.8,3,0.8C681,163.8,682,163.5,682.9,163z"/>
	<path class="st4" d="M704,151.1c1.1,1,1.7,2.6,1.7,4.6v9.8h-2V163c-0.5,0.8-1.2,1.5-2.1,1.9c-0.9,0.5-2,0.7-3.3,0.7
		c-1.8,0-3.2-0.4-4.2-1.3c-1-0.8-1.6-1.9-1.6-3.3c0-1.3,0.5-2.4,1.5-3.2c1-0.8,2.5-1.2,4.6-1.2h5v-1c0-1.4-0.4-2.4-1.1-3.1
		c-0.8-0.7-1.9-1.1-3.3-1.1c-1,0-2,0.2-2.9,0.5s-1.7,0.8-2.4,1.4l-1-1.6c0.8-0.7,1.8-1.2,2.9-1.6c1.1-0.4,2.3-0.6,3.5-0.6
		C701.4,149.6,702.9,150.1,704,151.1z M701.6,163.1c0.9-0.5,1.5-1.3,1.9-2.4v-2.6h-4.9c-2.7,0-4.1,0.9-4.1,2.8
		c0,0.9,0.3,1.6,1.1,2.2c0.7,0.5,1.7,0.8,2.9,0.8C699.7,164,700.8,163.7,701.6,163.1z"/>
</g>
</svg>
